<?xml version="1.0" encoding="UTF-8"?>
<svg width="497px" height="66px" viewBox="0 0 497 66" version="1.1" xmlns="http://www.w3.org/2000/svg" xmlns:xlink="http://www.w3.org/1999/xlink">
    <!-- Generator: Sketch 59.1 (86144) - https://sketch.com -->
    <title>wordmark</title>
    <desc>Created with Sketch.</desc>
    <g id="wordmark" stroke="none" stroke-width="1" fill="none" fill-rule="evenodd">
        <path d="M73,21.9561129 C80.1870428,21.9561129 86.0438871,27.8030303 86.0438871,35 C86.0438871,42.1969697 80.1969697,48.0438871 73,48.0438871 C65.8030303,48.0438871 59.9561129,42.1969697 59.9561129,35 C59.9561129,27.8030303 65.8129572,21.9561129 73,21.9561129 M73,16 C62.5073145,16 54,24.5073145 54,35 C54,45.4926855 62.5073145,54 73,54 C83.4926855,54 92,45.4926855 92,35 C92,24.5073145 83.4926855,16 73,16 L73,16 Z" id="Shape" fill="#333333" fill-rule="nonzero"></path>
        <path d="M477.5,21.0621762 C484.905959,21.0621762 490.937824,27.0940415 490.937824,34.5 C490.937824,41.9059585 484.905959,47.9378238 477.5,47.9378238 C470.094041,47.9378238 464.062176,41.9059585 464.062176,34.5 C464.062176,27.0940415 470.094041,21.0621762 477.5,21.0621762 M477.5,15 C466.729534,15 458,23.7295337 458,34.5 C458,45.2704663 466.729534,54 477.5,54 C488.270466,54 497,45.2704663 497,34.5 C497,23.7295337 488.270466,15 477.5,15 L477.5,15 Z" id="Shape" fill="#333333" fill-rule="nonzero"></path>
        <path d="M0,27.2903165 C0,10.4257724 10.3308042,1 23.9523087,1 C34.941253,1 42.7092998,6.40184627 45.6011272,15.6279201 L39.2191632,16.3568199 C36.7162367,10.1661643 31.3912855,6.74133384 23.822675,6.74133384 C14.0203772,6.74133384 6.78083677,13.3313866 6.78083677,27.0406933 C6.78083677,40.8099096 13.8209408,47.999058 23.9523087,47.999058 C32.0494255,47.999058 37.7034468,44.3046345 39.947106,36.6661643 L46,37.3950641 C43.2976371,47.869254 35.270323,54 23.9523087,54 C10.0615651,53.9800301 0,44.094951 0,27.2903165 Z" id="Path" fill="#333333" fill-rule="nonzero"></path>
        <path d="M155,28.6120527 L155,52.9800915 L148.341893,52.9800915 L148.341893,30.3839118 C148.341893,24.7298897 145.608034,21.5146624 140.614453,21.5146624 C135.883162,21.5146624 132.624725,24.4710788 130.829054,29.1396287 L130.829054,52.9900457 L124.170946,52.9900457 L124.170946,30.393866 C124.170946,24.739844 121.437087,21.5246166 116.443507,21.5246166 C111.712216,21.5246166 108.453778,24.4810331 106.658107,29.149583 L106.658107,53 L100,53 L100,16.9854722 L106.052825,16.9854722 L106.315114,21.7834275 C109.048973,18.1003497 112.569699,16 117.835657,16 C123.555576,16 127.822817,18.3691149 129.689105,22.9679849 C132.483492,18.4985203 136.216067,16 141.875459,16 C149.945891,16 155,20.9273608 155,28.6120527 Z" id="Path" fill="#333333" fill-rule="nonzero"></path>
        <path d="M200,34.2546012 C200,45.8798186 193.555298,53.4487913 184.110305,53.4487913 C179.096662,53.4487913 175.257475,51.3250503 172.513788,47.6714105 L172.513788,66 L166,66 L166,16.0568583 L171.990711,16.0568583 L172.316401,21.1095502 C175.050218,17.254608 179.027576,15.0000102 184.100435,15.0000102 C194.078374,14.9899553 200,22.4280814 200,34.2546012 Z M193.486212,34.2546012 C193.486212,25.749572 189.903628,20.2439496 183.133237,20.2439496 C178.504499,20.2439496 174.270537,22.9011422 172.513788,28.6785229 L172.513788,39.5689863 C174.270537,45.4772136 178.445283,48.2048621 183.133237,48.2048621 C189.903628,48.2048621 193.486212,42.5583279 193.486212,34.2546012 Z" id="Shape" fill="#333333" fill-rule="nonzero"></path>
        <path d="M240,17 L240,53.0142626 L233.840589,53.0142626 L233.576759,48.2150161 C230.826841,51.899085 227.285434,54 222.191489,54 C214.154828,54 209,49.0713132 209,41.255113 L209,17 L215.697218,17 L215.697218,39.9308396 C215.697218,45.3175457 218.50802,48.4738967 223.470049,48.4738967 C228.158101,48.4738967 231.50671,45.5166846 233.31293,40.8468784 L233.31293,17 L240,17 Z" id="Path" fill="#333333" fill-rule="nonzero"></path>
        <path d="M272.990048,21.8177921 L260.251382,21.2838156 L260.778843,27.066881 L260.778843,42.2902465 C260.778843,46.0784566 262.81902,47.6098607 265.635459,47.6098607 L272.930335,47.6098607 L272.930335,53 L264.391449,53 C258.738666,53 254.210468,49.6752412 254.210468,42.5622722 L254.210468,27.0769561 L254.668264,21.2938907 L246,21.8278671 L246,16.5687031 L254.608551,17.0321543 L254.210468,14.1103966 L254.210468,6 L260.778843,6 L260.778843,14.1103966 L260.321047,17.1026795 L273,16.5687031 L273,21.8177921 L272.990048,21.8177921 Z" id="Path" fill="#333333" fill-rule="nonzero"></path>
        <path d="M317,47.714659 L317,52.9574079 L311.770878,52.9574079 C308.373929,52.9574079 306.016863,50.9218709 305.561296,47.8437418 C303.01606,51.9048863 298.17318,54 292.745985,54 C285.427195,54 280,50.3956101 280,43.5145022 C280,36.6333943 285.159797,33.8134309 293.528373,32.1750719 L301.827623,30.606219 C302.936831,30.40763 303.917291,30.0799582 304.769004,29.6927097 L304.769004,27.796185 C304.769004,23.7946172 303.332976,21.1732427 296.667827,21.1732427 C290.131424,21.1732427 287.64561,23.0697674 287.120717,28.1834335 L281.237955,27.3990071 C282.089668,19.6043899 287.64561,16 296.796574,16 C308.037206,16 311.107334,20.9845832 311.107334,27.597596 L311.107334,44.7656128 C311.107334,46.9898093 311.8303,47.714659 314.048715,47.714659 L317,47.714659 L317,47.714659 Z M304.778908,41.7569898 L304.778908,34.4191273 C303.99652,34.6772929 303.214133,34.945388 302.293094,35.143977 L294.518737,36.7128299 C289.487687,37.6958453 286.546306,39.4037105 286.546306,43.266266 C286.546306,46.940162 289.289615,49.1643585 294.132495,49.1643585 C299.15364,49.1643585 303.471627,46.4734779 304.778908,41.7569898 Z" id="Shape" fill="#333333" fill-rule="nonzero"></path>
        <path d="M358,34.8082059 C358,46.3615251 351.553426,54 342.105691,54 C336.962253,54 332.914634,51.7456938 330.249129,47.8912328 L329.795006,53.0036772 L324,53.0036772 L324,2 L330.515679,2 L330.515679,21.3930714 C333.25029,17.7398877 337.159698,15.5459648 342.115563,15.5459648 C352.066783,15.5459648 358,22.9831624 358,34.8082059 Z M351.484321,34.8082059 C351.484321,26.3042384 347.900697,20.7993033 341.128339,20.7993033 C336.369919,20.7993033 332.075494,23.5266112 330.377468,29.5649313 L330.446574,39.9910973 C332.203833,45.9690343 336.379791,48.6862783 341.128339,48.6862783 C347.900697,48.6862783 351.484321,43.1108961 351.484321,34.8082059 Z" id="Shape" fill="#333333" fill-rule="nonzero"></path>
        <polygon id="Path" fill="#333333" fill-rule="nonzero" points="367 2 374 2 374 53 367 53"></polygon>
        <path d="M418,36.9610661 L389.600571,36.9610661 C390.129815,45.2223674 394.343795,48.687745 401.134094,48.687745 C406.206847,48.687745 409.372325,46.7912203 411.409415,42.7896525 L417.141227,43.842174 C414.574893,49.9388555 408.773181,54 400.794579,54 C389.131241,54 383,45.9372877 383,35.0645414 C383,24.1917951 388.931526,16 400.664765,16 C412.398003,16 418,24.0627123 418,35.0645414 L418,36.9610661 L418,36.9610661 Z M389.600571,32.1750719 L411.549215,32.1750719 C410.960057,25.6911419 408.253923,20.9647243 400.60485,20.9647243 C394.273894,20.9746538 390.259629,24.8372093 389.600571,32.1750719 Z" id="Shape" fill="#333333" fill-rule="nonzero"></path>
        <polygon id="Path" fill="#333333" fill-rule="nonzero" points="443 17 450 17 450 53 443 53"></polygon>
        <circle id="Oval" fill="#333333" fill-rule="nonzero" cx="430.5" cy="48.5" r="4.5"></circle>
        <circle id="Oval" fill="#333333" fill-rule="nonzero" cx="446.5" cy="4.5" r="4.5"></circle>
    </g>
</svg>