<?xml version="1.0" encoding="UTF-8"?>
<svg width="274px" height="275px" viewBox="0 0 274 275" version="1.1" xmlns="http://www.w3.org/2000/svg" xmlns:xlink="http://www.w3.org/1999/xlink">
    <!-- Generator: Sketch 58 (84663) - https://sketch.com -->
    <title>icon/file/large/archive</title>
    <desc>Created with Sketch.</desc>
    <g id="icon/file/large/archive" stroke="none" stroke-width="1" fill="none" fill-rule="evenodd">
        <path d="M137,274.5 C212.663011,274.5 274,213.163011 274,137.5 C274,61.8369893 212.663011,0.5 137,0.5 C61.3369893,0.5 0,61.8369893 0,137.5 C0,213.163011 61.3369893,274.5 137,274.5 Z" id="Oval" fill="#5D5D5D"></path>
        <g id="zipper" transform="translate(136.000000, 105.000000)" fill="#EDEDED" fill-rule="nonzero">
            <path d="M11.9963584,0 L11.9963584,6 L6.00074945,6 L6.00074945,12 L11.9963584,12 L11.9963584,17.9999859 L6.00074945,17.9999859 L6.00074945,23.9999813 L11.9963584,23.9999813 L11.9963584,29.9999766 L6.00074945,29.9999766 L6.00074945,35.9999719 L11.9963584,35.9999719 L11.9963584,41.9999672 L6.00074945,41.9999672 L6.00074945,47.9999625 L11.9963584,47.9999625 L11.9963584,53.9999578 L6.00074945,53.9999578 L6.00074945,59.9999531 L11.9963584,59.9999531 L11.9963584,65.9999484 L6.00074945,65.9999484 L6.00074945,59.9999531 L0.00514048524,59.9999531 L0.00514048524,53.9999578 L6.00074945,53.9999578 L6.00074945,47.9999625 L0.00514048524,47.9999625 L0.00514048524,41.9999672 L6.00074945,41.9999672 L6.00074945,35.9999719 L0.00514048524,35.9999719 L0.00514048524,29.9999766 L6.00074945,29.9999766 L6.00074945,23.9999813 L0.00514048524,23.9999813 L0.00514048524,17.9999859 L6.00074945,17.9999859 L6.00074945,12 L0.00514048524,12 L0.00514048524,6 L6.00074945,6 L6.00074945,0 L11.9963584,0 Z M4.22005359,68.9999461 C4.31373498,68.9940871 4.40741637,68.9940871 4.50109776,68.9999461 L7.49890224,68.9999461 C9.068103,68.9940871 10.3737967,70.2011152 10.4967067,71.7656439 L11.995609,91.2656287 C12.0014637,91.3418001 12.0014637,91.4179686 11.995609,91.5000035 C11.995609,93.9433516 9.9404641,96 7.49890224,96 L4.50109776,96 C2.0595359,96 0.00439103412,93.9433516 0.00439103412,91.5000035 C-0.00146367804,91.4179716 -0.00146367804,91.3417986 0.00439103412,91.2656287 L1.50329328,71.7656439 C1.6145403,70.3008051 2.76213133,69.134796 4.22005359,68.9999461 Z" id="Shape"></path>
        </g>
        <g id="Group-4-Copy-2" transform="translate(77.000000, 53.000000)" fill="#EDEDED">
            <path d="M118.250063,167.404353 L10.7500057,167.404353 C4.81067057,167.404353 0,162.738191 0,156.977269 L0,10.9981028 C0,5.23718097 4.81067057,0.571019473 10.7500057,0.571019473 L80.625043,0.571019473 C82.0494102,0.571019473 83.4200445,1.11843301 84.427793,2.09597624 L127.427816,43.8043096 C128.435633,44.7818528 129,46.1112809 129,47.4928277 L129,156.977203 C129,159.740296 127.864524,162.39278 125.848958,164.347899 C123.833392,166.30302 121.098832,167.404353 118.249994,167.404353 L118.250063,167.404353 Z M10.7500057,10.9981028 L10.7500057,156.977269 L118.250063,156.977269 L118.250063,49.6500495 L78.4010818,10.9981028 L10.7500057,10.9981028 Z" id="Fill-1"></path>
            <path d="M123.533898,52.5710195 L85.2711864,52.5710195 C79.2311878,52.5710195 74.3389831,47.9169779 74.3389831,42.1710195 L74.3389831,5.77101947 C74.3389831,2.89795707 76.784998,0.571019473 79.8050847,0.571019473 C82.8251715,0.571019473 85.2711864,2.89795707 85.2711864,5.77101947 L85.2711864,42.1710195 L123.533898,42.1710195 C126.553985,42.1710195 129,44.4979571 129,47.3710195 C129,50.2440819 126.553985,52.5710195 123.533898,52.5710195 Z" id="Fill-2"></path>
        </g>
    </g>
</svg>