<?xml version="1.0" encoding="UTF-8"?>
<svg width="274px" height="275px" viewBox="0 0 274 275" version="1.1" xmlns="http://www.w3.org/2000/svg" xmlns:xlink="http://www.w3.org/1999/xlink">
    <!-- Generator: Sketch 58 (84663) - https://sketch.com -->
    <title>Upload landing icon hover</title>
    <desc>Created with Sketch.</desc>
    <g id="Upload-landing-icon-hover" stroke="none" stroke-width="1" fill="none" fill-rule="evenodd">
        <path d="M137,274.5 C212.663011,274.5 274,213.163011 274,137.5 C274,61.8369893 212.663011,0.5 137,0.5 C61.3369893,0.5 0,61.8369893 0,137.5 C0,213.163011 61.3369893,274.5 137,274.5 Z" id="Oval" fill="#5D5D5D"></path>
        <g id="Group-2" transform="translate(75.000000, 52.000000)">
            <g id="Group" transform="translate(40.000000, 61.000000)">
                <circle id="Oval-Copy" fill="#EDEDED" cx="24" cy="24" r="24"></circle>
                <path d="M40.2343175,14.4371795 C39.4928883,13.4240507 38.3799621,12.4108796 37.5146868,11.524608 C36.4017606,10.6382942 35.1649884,10.8920087 33.9298219,12.1572073 C30.3449571,16.2098071 26.7584453,20.1355497 23.0496521,24.1879808 C21.1952966,26.2142807 20.4538673,25.9605662 18.8455571,24.5685273 C17.6087849,23.5553984 16.4958587,22.4153701 15.2606922,21.275384 C14.147766,20.1353979 13.0348398,20.1353979 11.9218725,21.4022328 C11.3042892,22.1616894 10.5612543,23.047961 9.81982498,23.8090623 C8.83074483,25.0759056 8.58305278,25.9622194 9.94366278,27.35592 C12.9109444,30.0148192 16.1260828,33.0543745 19.0933644,35.7146655 C20.9477198,37.4872509 21.9368,37.4872509 23.9150426,35.334119 C29.355951,29.3822031 34.9191409,23.0494623 40.3596375,17.0975464 C41.3487177,16.0844175 41.1010668,15.1981037 40.2357997,14.4386472 L40.2343175,14.4371795 Z" id="Fill-1" fill="#5D5D5D"></path>
            </g>
            <g id="Group-4-Copy-2" fill="#EDEDED">
                <path d="M118.250063,168.701136 L10.7500057,168.701136 C4.81067057,168.701136 0,163.999043 0,158.19376 L0,11.0904932 C0,5.28520984 4.81067057,0.583116972 10.7500057,0.583116972 L80.625043,0.583116972 C82.0494102,0.583116972 83.4200445,1.13474582 84.427793,2.11981654 L127.427816,44.1493213 C128.435633,45.134392 129,46.4740572 129,47.8662426 L129,158.193693 C129,160.978063 127.864524,163.650972 125.848958,165.621147 C123.833392,167.591323 121.098832,168.701136 118.249994,168.701136 L118.250063,168.701136 Z M10.7500057,11.0904932 L10.7500057,158.19376 L118.250063,158.19376 L118.250063,50.0400758 L78.4010818,11.0904932 L10.7500057,11.0904932 Z" id="Fill-1"></path>
                <path d="M123.533898,52.9835385 L85.2711864,52.9835385 C79.2311878,52.9835385 74.3389831,48.2936588 74.3389831,42.5034542 L74.3389831,5.82315912 C74.3389831,2.92797295 76.784998,0.583116972 79.8050847,0.583116972 C82.8251715,0.583116972 85.2711864,2.92797295 85.2711864,5.82315912 L85.2711864,42.5034542 L123.533898,42.5034542 C126.553985,42.5034542 129,44.8483102 129,47.7434963 C129,50.6386825 126.553985,52.9835385 123.533898,52.9835385 Z" id="Fill-2"></path>
            </g>
        </g>
    </g>
</svg>