<?xml version="1.0" encoding="UTF-8"?>
<svg width="274px" height="275px" viewBox="0 0 274 275" version="1.1" xmlns="http://www.w3.org/2000/svg" xmlns:xlink="http://www.w3.org/1999/xlink">
    <!-- Generator: Sketch 58 (84663) - https://sketch.com -->
    <title>Upload landing icon hover</title>
    <desc>Created with Sketch.</desc>
    <g id="Upload-landing-icon-hover" stroke="none" stroke-width="1" fill="none" fill-rule="evenodd">
        <path d="M137,274.5 C212.663011,274.5 274,213.163011 274,137.5 C274,61.8369893 212.663011,0.5 137,0.5 C61.3369893,0.5 0,61.8369893 0,137.5 C0,213.163011 61.3369893,274.5 137,274.5 Z" id="Oval" fill="#5D5D5D"></path>
        <path d="M141.491071,111 C126.84779,111 115,122.836468 115,137.465754 C115,152.095041 126.84779,163.931507 141.491071,163.931507 C156.134352,163.931507 167.982143,152.095041 167.982143,137.465754 C167.982143,122.836468 156.134352,111 141.491071,111 Z M154.922176,138.950237 L142.922974,138.950237 L142.922974,150.940174 C142.922974,151.765131 142.262817,152.424658 141.43707,152.424658 C140.611324,152.424658 139.951167,151.765131 139.951167,150.940174 L139.949014,138.950237 L128.003761,138.950237 C127.178014,138.950237 126.517857,138.290711 126.517857,137.465753 C126.517857,136.640796 127.178014,135.981269 128.003761,135.981269 L140.00517,135.981269 L140.00517,123.991333 C140.00517,123.166376 140.665327,122.506849 141.491074,122.506849 C142.316815,122.506849 142.976978,123.166376 142.976978,123.991333 L142.976978,135.981269 L154.978382,135.981269 C155.804129,135.981269 156.464286,136.640796 156.464286,137.465753 C156.410524,138.290711 155.748198,138.950237 154.922451,138.950237 L154.922176,138.950237 Z" id="Fill-1" fill="#EDEDED"></path>
        <g id="Group-4-Copy-2" transform="translate(77.000000, 53.000000)" fill="#EDEDED">
            <path d="M118.250063,168.701136 L10.7500057,168.701136 C4.81067057,168.701136 0,163.999043 0,158.19376 L0,11.0904932 C0,5.28520984 4.81067057,0.583116972 10.7500057,0.583116972 L80.625043,0.583116972 C82.0494102,0.583116972 83.4200445,1.13474582 84.427793,2.11981654 L127.427816,44.1493213 C128.435633,45.134392 129,46.4740572 129,47.8662426 L129,158.193693 C129,160.978063 127.864524,163.650972 125.848958,165.621147 C123.833392,167.591323 121.098832,168.701136 118.249994,168.701136 L118.250063,168.701136 Z M10.7500057,11.0904932 L10.7500057,158.19376 L118.250063,158.19376 L118.250063,50.0400758 L78.4010818,11.0904932 L10.7500057,11.0904932 Z" id="Fill-1"></path>
            <path d="M123.533898,52.9835385 L85.2711864,52.9835385 C79.2311878,52.9835385 74.3389831,48.2936588 74.3389831,42.5034542 L74.3389831,5.82315912 C74.3389831,2.92797295 76.784998,0.583116972 79.8050847,0.583116972 C82.8251715,0.583116972 85.2711864,2.92797295 85.2711864,5.82315912 L85.2711864,42.5034542 L123.533898,42.5034542 C126.553985,42.5034542 129,44.8483102 129,47.7434963 C129,50.6386825 126.553985,52.9835385 123.533898,52.9835385 Z" id="Fill-2"></path>
        </g>
    </g>
</svg>