<?xml version="1.0" encoding="UTF-8"?>
<svg width="274px" height="275px" viewBox="0 0 274 275" version="1.1" xmlns="http://www.w3.org/2000/svg" xmlns:xlink="http://www.w3.org/1999/xlink">
    <!-- Generator: Sketch 58 (84663) - https://sketch.com -->
    <title>Upload landing icon</title>
    <desc>Created with Sketch.</desc>
    <g id="Upload-landing-icon" stroke="none" stroke-width="1" fill="none" fill-rule="evenodd">
        <path d="M137,274.5 C212.663011,274.5 274,213.163011 274,137.5 C274,61.8369893 212.663011,0.5 137,0.5 C61.3369893,0.5 0,61.8369893 0,137.5 C0,213.163011 61.3369893,274.5 137,274.5 Z" id="Oval" stroke="#878787" stroke-width="13" stroke-linecap="round" stroke-dasharray="16,34"></path>
        <g id="Group" transform="translate(77.000000, 53.000000)" fill="#C4C4C4">
            <g id="Group-4-Copy-2">
                <path d="M118.250063,168.701136 L10.7500057,168.701136 C4.81067057,168.701136 0,163.999043 0,158.19376 L0,11.0904932 C0,5.28520984 4.81067057,0.583116972 10.7500057,0.583116972 L80.625043,0.583116972 C82.0494102,0.583116972 83.4200445,1.13474582 84.427793,2.11981654 L127.427816,44.1493213 C128.435633,45.134392 129,46.4740572 129,47.8662426 L129,158.193693 C129,160.978063 127.864524,163.650972 125.848958,165.621147 C123.833392,167.591323 121.098832,168.701136 118.249994,168.701136 L118.250063,168.701136 Z M10.7500057,11.0904932 L10.7500057,158.19376 L118.250063,158.19376 L118.250063,50.0400758 L78.4010818,11.0904932 L10.7500057,11.0904932 Z" id="Fill-1"></path>
                <path d="M123.533898,52.9835385 L85.2711864,52.9835385 C79.2311878,52.9835385 74.3389831,48.2936588 74.3389831,42.5034542 L74.3389831,5.82315912 C74.3389831,2.92797295 76.784998,0.583116972 79.8050847,0.583116972 C82.8251715,0.583116972 85.2711864,2.92797295 85.2711864,5.82315912 L85.2711864,42.5034542 L123.533898,42.5034542 C126.553985,42.5034542 129,44.8483102 129,47.7434963 C129,50.6386825 126.553985,52.9835385 123.533898,52.9835385 Z" id="Fill-2"></path>
            </g>
            <path d="M64.4910712,58 C49.84779,58 38,69.8364676 38,84.4657542 C38,99.0950409 49.84779,110.931507 64.4910712,110.931507 C79.1343523,110.931507 90.9821429,99.0950409 90.9821429,84.4657542 C90.9821429,69.8364676 79.1343523,58 64.4910712,58 Z M77.9221761,85.9502374 L65.9229742,85.9502374 L65.9229742,97.9401735 C65.9229742,98.7651313 65.2628171,99.4246575 64.4370703,99.4246575 C63.6113235,99.4246575 62.9511665,98.7651313 62.9511665,97.9401735 L62.9490141,85.9502374 L51.003761,85.9502374 C50.1780142,85.9502374 49.5178571,85.2907112 49.5178571,84.4657534 C49.5178571,83.6407957 50.1780142,82.9812694 51.003761,82.9812694 L63.0051704,82.9812694 L63.0051704,70.9913333 C63.0051704,70.1663755 63.6653274,69.5068493 64.4910742,69.5068493 C65.3168155,69.5068493 65.976978,70.1663755 65.976978,70.9913333 L65.976978,82.9812694 L77.9783819,82.9812694 C78.8041287,82.9812694 79.4642857,83.6407957 79.4642857,84.4657534 C79.4105241,85.2907112 78.7481981,85.9502374 77.9224513,85.9502374 L77.9221761,85.9502374 Z" id="Fill-1"></path>
        </g>
    </g>
</svg>