<?xml version="1.0" encoding="UTF-8"?>
<svg width="274px" height="275px" viewBox="0 0 274 275" version="1.1" xmlns="http://www.w3.org/2000/svg" xmlns:xlink="http://www.w3.org/1999/xlink">
    <!-- Generator: Sketch 58 (84663) - https://sketch.com -->
    <title>icon/file/large/image</title>
    <desc>Created with Sketch.</desc>
    <g id="icon/file/large/image" stroke="none" stroke-width="1" fill="none" fill-rule="evenodd">
        <path d="M137,274.5 C212.663011,274.5 274,213.163011 274,137.5 C274,61.8369893 212.663011,0.5 137,0.5 C61.3369893,0.5 0,61.8369893 0,137.5 C0,213.163011 61.3369893,274.5 137,274.5 Z" id="Oval" fill="#5D5D5D"></path>
        <g id="Group-4-Copy-2" transform="translate(77.000000, 53.000000)" fill="#EDEDED">
            <path d="M118.250063,167.404353 L10.7500057,167.404353 C4.81067057,167.404353 0,162.738191 0,156.977269 L0,10.9981028 C0,5.23718097 4.81067057,0.571019473 10.7500057,0.571019473 L80.625043,0.571019473 C82.0494102,0.571019473 83.4200445,1.11843301 84.427793,2.09597624 L127.427816,43.8043096 C128.435633,44.7818528 129,46.1112809 129,47.4928277 L129,156.977203 C129,159.740296 127.864524,162.39278 125.848958,164.347899 C123.833392,166.30302 121.098832,167.404353 118.249994,167.404353 L118.250063,167.404353 Z M10.7500057,10.9981028 L10.7500057,156.977269 L118.250063,156.977269 L118.250063,49.6500495 L78.4010818,10.9981028 L10.7500057,10.9981028 Z" id="Fill-1"></path>
            <path d="M123.533898,52.5710195 L85.2711864,52.5710195 C79.2311878,52.5710195 74.3389831,47.9169779 74.3389831,42.1710195 L74.3389831,5.77101947 C74.3389831,2.89795707 76.784998,0.571019473 79.8050847,0.571019473 C82.8251715,0.571019473 85.2711864,2.89795707 85.2711864,5.77101947 L85.2711864,42.1710195 L123.533898,42.1710195 C126.553985,42.1710195 129,44.4979571 129,47.3710195 C129,50.2440819 126.553985,52.5710195 123.533898,52.5710195 Z" id="Fill-2"></path>
        </g>
        <polygon id="Path" fill="#EDEDED" points="109 180.148268 124.064169 155.95576 130 165.542049 145.52212 145 172 180.606219"></polygon>
    </g>
</svg>