<?xml version="1.0" encoding="UTF-8"?>
<svg width="274px" height="275px" viewBox="0 0 274 275" version="1.1" xmlns="http://www.w3.org/2000/svg" xmlns:xlink="http://www.w3.org/1999/xlink">
    <!-- Generator: Sketch 58 (84663) - https://sketch.com -->
    <title>icon/file/large/pdf</title>
    <desc>Created with Sketch.</desc>
    <g id="icon/file/large/pdf" stroke="none" stroke-width="1" fill="none" fill-rule="evenodd">
        <g id="Group">
            <path d="M137,274 C212.663011,274 274,212.663011 274,137 C274,61.3369893 212.663011,0 137,0 C61.3369893,0 0,61.3369893 0,137 C0,212.663011 61.3369893,274 137,274 Z" id="Oval" fill="#5D5D5D"></path>
            <g id="Group-4-Copy-2" transform="translate(77.000000, 52.500000)" fill="#EDEDED">
                <path d="M118.250063,167.404353 L10.7500057,167.404353 C4.81067057,167.404353 0,162.738191 0,156.977269 L0,10.9981028 C0,5.23718097 4.81067057,0.571019473 10.7500057,0.571019473 L80.625043,0.571019473 C82.0494102,0.571019473 83.4200445,1.11843301 84.427793,2.09597624 L127.427816,43.8043096 C128.435633,44.7818528 129,46.1112809 129,47.4928277 L129,156.977203 C129,159.740296 127.864524,162.39278 125.848958,164.347899 C123.833392,166.30302 121.098832,167.404353 118.249994,167.404353 L118.250063,167.404353 Z M10.7500057,10.9981028 L10.7500057,156.977269 L118.250063,156.977269 L118.250063,49.6500495 L78.4010818,10.9981028 L10.7500057,10.9981028 Z" id="Fill-1"></path>
                <path d="M123.533898,52.5710195 L85.2711864,52.5710195 C79.2311878,52.5710195 74.3389831,47.9169779 74.3389831,42.1710195 L74.3389831,5.77101947 C74.3389831,2.89795707 76.784998,0.571019473 79.8050847,0.571019473 C82.8251715,0.571019473 85.2711864,2.89795707 85.2711864,5.77101947 L85.2711864,42.1710195 L123.533898,42.1710195 C126.553985,42.1710195 129,44.4979571 129,47.3710195 C129,50.2440819 126.553985,52.5710195 123.533898,52.5710195 Z" id="Fill-2"></path>
            </g>
            <g id="np_adobe-acrobat_590293_EDEDED" transform="translate(115.000000, 128.500000)" fill="#EDEDED" fill-rule="nonzero">
                <path d="M22.9671182,0.703296703 C19.7351013,0.703296703 17.0781965,3.36038839 17.0781965,6.59238189 C17.0781965,10.6087741 19.3095678,15.5958891 21.6604842,20.2840257 C19.8224929,26.0348695 17.7383447,32.1972281 15.0719587,37.3982861 C9.61551953,39.5398948 4.74809027,41.1317177 1.82188512,43.4897426 C1.77587792,43.5357495 1.73217329,43.5863556 1.69306496,43.6369646 C0.623401241,44.7296461 0,46.2202392 0,47.8144176 C0,51.0464111 2.65690476,53.7032967 5.88892161,53.7032967 C7.46467925,53.7032967 8.98519881,53.1144088 10.0847782,51.9918707 C10.1238842,51.9619663 10.1606923,51.9320632 10.1951955,51.8998569 C12.348303,49.3280657 14.8879594,44.6630134 17.1511897,40.3982872 C22.3661243,38.3463662 27.8319268,36.2599952 33.1066339,35.0063118 C36.9574587,38.1094566 42.5265529,40.1590809 47.1110784,40.1590809 C50.3430952,40.1590809 53,37.5021954 53,34.2702019 C53,31.0382084 50.3430952,28.3813228 47.1110784,28.3813228 C43.4350958,28.3813228 38.0939616,29.6925406 34.0082278,31.0681239 C30.6980061,27.9603857 27.6546703,24.0774355 25.4692915,19.9528646 C27.0312102,15.1405315 28.8554214,10.3257251 28.8554214,6.59217578 C28.8554214,3.36018228 26.1985167,0.703296703 22.9664998,0.703296703 L22.9671182,0.703296703 Z M22.9671182,4.23683026 C24.2898288,4.23683026 25.3226868,5.26968076 25.3226868,6.59238189 C25.3226868,8.35904561 24.3772204,11.6140057 23.2799377,15.113001 C21.8145973,11.7085223 20.6115495,8.44443436 20.6115495,6.59238189 C20.6115495,5.26968076 21.6444075,4.23683026 22.9671182,4.23683026 Z M23.979306,24.3879856 C25.7505758,27.205932 27.8254785,29.8260121 30.0890622,32.1542393 C26.5971083,33.1088855 23.1854794,34.3326534 19.8199607,35.6139557 C21.4463041,31.9448896 22.746048,28.1380238 23.9790116,24.3885745 L23.979306,24.3879856 Z M47.111579,31.9145619 C48.4342896,31.9145619 49.4671476,32.9474124 49.4671476,34.2701135 C49.4671476,35.5928147 48.4342896,36.6256652 47.111579,36.6256652 C44.4569709,36.6256652 40.6867655,35.4271605 37.6710487,33.7548366 C41.1330869,32.7771649 44.9079445,31.9145619 47.111579,31.9145619 Z M11.9617837,42.4591888 C10.3055245,45.4151116 8.66074867,48.173227 7.50828671,49.5623547 C7.11492442,49.9373114 6.59273607,50.1696159 5.88883327,50.1696159 C4.56612259,50.1696159 3.53326463,49.1367654 3.53326463,47.8140643 C3.53326463,47.1929642 3.79780677,46.5741608 4.15896255,46.1762492 C5.54150468,45.1065933 8.54573803,43.8252909 11.9617837,42.4588943 L11.9617837,42.4591888 Z" id="Shape"></path>
            </g>
            <path d="M129.611176,191.83 L129.611176,188.62 L131.441176,188.62 C131.711178,188.62 131.971175,188.64 132.221176,188.68 C132.471178,188.72 132.691176,188.797499 132.881176,188.9125 C133.071177,189.027501 133.223676,189.189999 133.338676,189.4 C133.453677,189.610001 133.511176,189.884998 133.511176,190.225 C133.511176,190.565002 133.453677,190.839999 133.338676,191.05 C133.223676,191.260001 133.071177,191.422499 132.881176,191.5375 C132.691176,191.652501 132.471178,191.73 132.221176,191.77 C131.971175,191.81 131.711178,191.83 131.441176,191.83 L129.611176,191.83 Z M127.256176,186.79 L127.256176,197.5 L129.611176,197.5 L129.611176,193.66 L132.086176,193.66 C132.756176,193.66 133.326174,193.562501 133.796176,193.3675 C134.266179,193.172499 134.648675,192.915002 134.943676,192.595 C135.238678,192.274998 135.453676,191.907502 135.588676,191.4925 C135.723677,191.077498 135.791176,190.655002 135.791176,190.225 C135.791176,189.784998 135.723677,189.360002 135.588676,188.95 C135.453676,188.539998 135.238678,188.175002 134.943676,187.855 C134.648675,187.534998 134.266179,187.277501 133.796176,187.0825 C133.326174,186.887499 132.756176,186.79 132.086176,186.79 L127.256176,186.79 Z M139.797059,195.52 L139.797059,188.77 L141.477059,188.77 C142.057062,188.77 142.544557,188.852499 142.939559,189.0175 C143.334561,189.182501 143.652058,189.419998 143.892059,189.73 C144.13206,190.040002 144.304558,190.412498 144.409559,190.8475 C144.514559,191.282502 144.567059,191.77 144.567059,192.31 C144.567059,192.900003 144.49206,193.399998 144.342059,193.81 C144.192058,194.220002 143.99206,194.552499 143.742059,194.8075 C143.492058,195.062501 143.20706,195.244999 142.887059,195.355 C142.567057,195.465001 142.237061,195.52 141.897059,195.52 L139.797059,195.52 Z M137.442059,186.79 L137.442059,197.5 L142.062059,197.5 C142.882063,197.5 143.594556,197.362501 144.199559,197.0875 C144.804562,196.812499 145.309557,196.435002 145.714559,195.955 C146.119561,195.474998 146.422058,194.905003 146.622059,194.245 C146.82206,193.584997 146.922059,192.865004 146.922059,192.085 C146.922059,191.194996 146.79956,190.420003 146.554559,189.76 C146.309558,189.099997 145.969561,188.550002 145.534559,188.11 C145.099557,187.669998 144.584562,187.340001 143.989559,187.12 C143.394556,186.899999 142.752062,186.79 142.062059,186.79 L137.442059,186.79 Z M148.737941,186.79 L156.267941,186.79 L156.267941,188.77 L151.092941,188.77 L151.092941,191.245 L155.577941,191.245 L155.577941,193.075 L151.092941,193.075 L151.092941,197.5 L148.737941,197.5 L148.737941,186.79 Z" id="PDF" fill="#EDEDED" fill-rule="nonzero"></path>
        </g>
    </g>
</svg>