<?xml version="1.0" encoding="UTF-8"?>
<svg width="274px" height="275px" viewBox="0 0 274 275" version="1.1" xmlns="http://www.w3.org/2000/svg" xmlns:xlink="http://www.w3.org/1999/xlink">
    <!-- Generator: Sketch 58 (84663) - https://sketch.com -->
    <title>icon/file/large/unknown</title>
    <desc>Created with Sketch.</desc>
    <g id="icon/file/large/unknown" stroke="none" stroke-width="1" fill="none" fill-rule="evenodd">
        <path d="M137,274.5 C212.663011,274.5 274,213.163011 274,137.5 C274,61.8369893 212.663011,0.5 137,0.5 C61.3369893,0.5 0,61.8369893 0,137.5 C0,213.163011 61.3369893,274.5 137,274.5 Z" id="Oval" fill="#5D5D5D"></path>
        <g id="Group-4-Copy-2" transform="translate(77.000000, 53.000000)" fill="#EDEDED">
            <path d="M118.250063,167.404353 L10.7500057,167.404353 C4.81067057,167.404353 0,162.738191 0,156.977269 L0,10.9981028 C0,5.23718097 4.81067057,0.571019473 10.7500057,0.571019473 L80.625043,0.571019473 C82.0494102,0.571019473 83.4200445,1.11843301 84.427793,2.09597624 L127.427816,43.8043096 C128.435633,44.7818528 129,46.1112809 129,47.4928277 L129,156.977203 C129,159.740296 127.864524,162.39278 125.848958,164.347899 C123.833392,166.30302 121.098832,167.404353 118.249994,167.404353 L118.250063,167.404353 Z M10.7500057,10.9981028 L10.7500057,156.977269 L118.250063,156.977269 L118.250063,49.6500495 L78.4010818,10.9981028 L10.7500057,10.9981028 Z" id="Fill-1"></path>
            <path d="M123.533898,52.5710195 L85.2711864,52.5710195 C79.2311878,52.5710195 74.3389831,47.9169779 74.3389831,42.1710195 L74.3389831,5.77101947 C74.3389831,2.89795707 76.784998,0.571019473 79.8050847,0.571019473 C82.8251715,0.571019473 85.2711864,2.89795707 85.2711864,5.77101947 L85.2711864,42.1710195 L123.533898,42.1710195 C126.553985,42.1710195 129,44.4979571 129,47.3710195 C129,50.2440819 126.553985,52.5710195 123.533898,52.5710195 Z" id="Fill-2"></path>
        </g>
        <path d="M134.127941,174.22 L134.127941,185 L145.117941,185 L145.117941,174.22 L134.127941,174.22 Z M122.857941,151.12 C122.904608,148.599987 123.33627,146.29001 124.152941,144.19 C124.969612,142.08999 126.112934,140.270008 127.582941,138.73 C129.052949,137.189992 130.826264,135.988338 132.902941,135.125 C134.979618,134.261662 137.301262,133.83 139.867941,133.83 C143.181291,133.83 145.946263,134.284995 148.162941,135.195 C150.379619,136.105005 152.164601,137.23666 153.517941,138.59 C154.871281,139.94334 155.839605,141.401659 156.422941,142.965 C157.006277,144.528341 157.297941,145.98666 157.297941,147.34 C157.297941,149.580011 157.006277,151.423326 156.422941,152.87 C155.839605,154.316674 155.116279,155.553328 154.252941,156.58 C153.389604,157.606672 152.432946,158.481663 151.382941,159.205 C150.332936,159.928337 149.341279,160.651663 148.407941,161.375 C147.474603,162.098337 146.646278,162.926662 145.922941,163.86 C145.199604,164.793338 144.744609,165.959993 144.557941,167.36 L144.557941,170.02 L135.107941,170.02 L135.107941,166.87 C135.247942,164.863323 135.632938,163.18334 136.262941,161.83 C136.892944,160.47666 137.627937,159.321671 138.467941,158.365 C139.307945,157.408329 140.194603,156.580004 141.127941,155.88 C142.061279,155.179996 142.924604,154.480004 143.717941,153.78 C144.511278,153.079996 145.152939,152.310004 145.642941,151.47 C146.132944,150.629996 146.354608,149.580006 146.307941,148.32 C146.307941,146.173323 145.782946,144.586672 144.732941,143.56 C143.682936,142.533328 142.224617,142.02 140.357941,142.02 C139.097935,142.02 138.012946,142.264998 137.102941,142.755 C136.192937,143.245002 135.446277,143.898329 134.862941,144.715 C134.279605,145.531671 133.847943,146.488328 133.567941,147.585 C133.28794,148.681672 133.147941,149.859994 133.147941,151.12 L122.857941,151.12 Z" id="?" fill="#EDEDED" fill-rule="nonzero"></path>
    </g>
</svg>