<?xml version="1.0" encoding="UTF-8"?>
<svg width="274px" height="275px" viewBox="0 0 274 275" version="1.1" xmlns="http://www.w3.org/2000/svg" xmlns:xlink="http://www.w3.org/1999/xlink">
    <!-- Generator: Sketch 58 (84663) - https://sketch.com -->
    <title>icon/file/large/video</title>
    <desc>Created with Sketch.</desc>
    <g id="icon/file/large/video" stroke="none" stroke-width="1" fill="none" fill-rule="evenodd">
        <path d="M137,274.5 C212.663011,274.5 274,213.163011 274,137.5 C274,61.8369893 212.663011,0.5 137,0.5 C61.3369893,0.5 0,61.8369893 0,137.5 C0,213.163011 61.3369893,274.5 137,274.5 Z" id="Oval" fill="#5D5D5D"></path>
        <g id="Group-4-Copy-2" transform="translate(77.000000, 53.000000)" fill="#EDEDED">
            <path d="M118.250063,167.404353 L10.7500057,167.404353 C4.81067057,167.404353 0,162.738191 0,156.977269 L0,10.9981028 C0,5.23718097 4.81067057,0.571019473 10.7500057,0.571019473 L80.625043,0.571019473 C82.0494102,0.571019473 83.4200445,1.11843301 84.427793,2.09597624 L127.427816,43.8043096 C128.435633,44.7818528 129,46.1112809 129,47.4928277 L129,156.977203 C129,159.740296 127.864524,162.39278 125.848958,164.347899 C123.833392,166.30302 121.098832,167.404353 118.249994,167.404353 L118.250063,167.404353 Z M10.7500057,10.9981028 L10.7500057,156.977269 L118.250063,156.977269 L118.250063,49.6500495 L78.4010818,10.9981028 L10.7500057,10.9981028 Z" id="Fill-1"></path>
            <path d="M123.533898,52.5710195 L85.2711864,52.5710195 C79.2311878,52.5710195 74.3389831,47.9169779 74.3389831,42.1710195 L74.3389831,5.77101947 C74.3389831,2.89795707 76.784998,0.571019473 79.8050847,0.571019473 C82.8251715,0.571019473 85.2711864,2.89795707 85.2711864,5.77101947 L85.2711864,42.1710195 L123.533898,42.1710195 C126.553985,42.1710195 129,44.4979571 129,47.3710195 C129,50.2440819 126.553985,52.5710195 123.533898,52.5710195 Z" id="Fill-2"></path>
            <path d="M48.9199698,126.237686 C46.0517937,126.237686 43.7288136,123.934848 43.7288136,121.091562 L43.7288136,90.2149153 C43.7288136,88.4331269 44.6632217,86.7735277 46.1946543,85.834219 C47.7260537,84.9014808 49.6337745,84.8178586 51.243116,85.6155135 L82.3900532,101.053837 C84.1550463,101.922236 85.2711864,103.704124 85.2711864,105.659644 C85.2711864,107.608743 84.1550962,109.390531 82.3900532,110.265452 L51.243116,125.703775 C50.5228493,126.057564 49.724707,126.237686 48.9201359,126.237686 L48.9199698,126.237686 Z M54.111126,98.5392592 L54.111126,112.774628 L68.4581528,105.653733 L54.111126,98.5392592 Z" id="Fill-3"></path>
        </g>
    </g>
</svg>