<?xml version="1.0" encoding="UTF-8"?>
<svg width="18px" height="13px" viewBox="0 0 18 13" version="1.1" xmlns="http://www.w3.org/2000/svg" xmlns:xlink="http://www.w3.org/1999/xlink">
    <!-- Generator: Sketch 59.1 (86144) - https://sketch.com -->
    <title>Fill 1</title>
    <desc>Created with Sketch.</desc>
    <g id="Symbols" stroke="none" stroke-width="1" fill="none" fill-rule="evenodd">
        <g id="icon/arrow" fill="#333333">
            <path d="M1.32791821,5.21809861 L13.4687737,5.21809861 L10.3285981,2.18733174 C9.81007026,1.68687024 9.81007026,0.875182678 10.3285981,0.374721175 C10.5878555,0.124496673 10.9432168,0 11.2669729,0 C11.6236227,0 11.9473788,0.124502923 12.2053477,0.374721175 L17.6117516,5.59275729 C17.8710091,5.84298179 18,6.155464 18,6.49843762 C18,6.84266114 17.8710026,7.1551371 17.6117516,7.40411795 L12.2053477,12.6246539 C11.6868199,13.1251154 10.8458309,13.1251154 10.3273031,12.6246539 C9.80877523,12.1241924 9.80877523,11.3125048 10.3273031,10.8120433 L13.4674787,7.78127644 L1.32791821,7.78127644 C0.583020069,7.78127644 0,7.21856973 0,6.49962503 C0,5.78068033 0.583020069,5.21797362 1.32791821,5.21797362 L1.32791821,5.21809861 Z" id="Fill-1"></path>
        </g>
    </g>
</svg>