<?xml version="1.0" encoding="UTF-8"?>
<svg width="16px" height="10px" viewBox="0 0 16 10" version="1.1" xmlns="http://www.w3.org/2000/svg" xmlns:xlink="http://www.w3.org/1999/xlink">
    <!-- Generator: Sketch 59.1 (86144) - https://sketch.com -->
    <title>icon/arrow</title>
    <desc>Created with Sketch.</desc>
    <g id="icon/arrow" stroke="none" stroke-width="1" fill="none" fill-rule="evenodd">
        <path d="M12.4757129,4.01392201 L10.0333541,1.68256288 C9.63005464,1.29759249 9.63005464,0.673217445 10.0333541,0.288247058 C10.2349988,0.0957666718 10.5113908,0 10.7632012,0 C11.0405954,0 11.2924058,0.0957714791 11.4930482,0.288247058 L15.698029,4.30212099 C15.8996737,4.49460138 16,4.73497231 16,4.99879817 C16,5.26358549 15.8996687,5.50395162 15.698029,5.69547535 L11.4930482,9.71127221 C11.0897488,10.0962426 10.4356463,10.0962426 10.0323468,9.71127221 C9.6290474,9.32630182 9.6290474,8.70192677 10.0323468,8.31695639 L12.4747057,5.98559726 L1.03282528,5.98559726 C0.453460054,5.98559726 0,5.55274594 0,4.99971156 C0,4.44667718 0.453460054,4.01382586 1.03282528,4.01382586 L12.4757129,4.01392201 Z" id="Fill-1" fill="#5D5D5D"></path>
    </g>
</svg>