<?xml version="1.0" encoding="UTF-8"?>
<svg width="24px" height="24px" viewBox="0 0 24 24" version="1.1" xmlns="http://www.w3.org/2000/svg" xmlns:xlink="http://www.w3.org/1999/xlink">
    <!-- Generator: Sketch 58 (84663) - https://sketch.com -->
    <title>icon/check</title>
    <desc>Created with Sketch.</desc>
    <g id="icon/check" stroke="none" stroke-width="1" fill="none" fill-rule="evenodd">
        <g>
            <circle id="Oval-Copy" fill="#EDEDED" cx="12" cy="12" r="12"></circle>
            <path d="M20.0123733,7.09876792 C19.6370247,6.59804609 19.0736058,6.09730342 18.6355602,5.65927865 C18.0721413,5.22123303 17.4460254,5.34662713 16.8207224,5.97193017 C15.0058845,7.97485916 13.1902129,9.9150911 11.3126364,11.9179367 C10.3738689,12.9194012 9.99852034,12.7940071 9.18431326,12.1060154 C8.55819733,11.6052935 7.99477846,11.0418538 7.36947542,10.4784349 C6.80605654,9.91501606 6.24263767,9.91501606 5.67919795,10.5411278 C5.36654643,10.9164764 4.99038497,11.3545012 4.6150364,11.7306626 C4.11431457,12.3567786 3.98892047,12.7948242 4.67772928,13.4836372 C6.1799156,14.7977532 7.8075794,16.300002 9.30976573,17.6148059 C10.2485332,18.4908763 10.749255,18.4908763 11.7507403,17.4267272 C14.5052002,14.4850933 17.3215651,11.3552432 20.0758165,8.41360929 C20.5765383,7.91288746 20.4511651,7.47484184 20.0131236,7.09949327 L20.0123733,7.09876792 Z" id="Fill-1" fill="#C4C4C4"></path>
        </g>
    </g>
</svg>