<?xml version="1.0" encoding="UTF-8"?>
<svg width="30px" height="30px" viewBox="0 0 30 30" version="1.1" xmlns="http://www.w3.org/2000/svg" xmlns:xlink="http://www.w3.org/1999/xlink">
    <!-- Generator: Sketch 58 (84663) - https://sketch.com -->
    <title>icon/bullet/create-date</title>
    <desc>Created with Sketch.</desc>
    <g id="icon/bullet/create-date" stroke="none" stroke-width="1" fill="none" fill-rule="evenodd">
        <path d="M3.07412093,8 C2.91986512,8 2.79505116,8.12481814 2.79505116,8.27906977 L2.79505116,10.6511628 C2.79505116,10.8054186 2.9198693,10.9302326 3.07412093,10.9302326 C3.22837256,10.9302326 3.3531907,10.8054144 3.3531907,10.6511628 L3.3531907,8.27906977 C3.3531907,8.12481395 3.22837256,8 3.07412093,8 Z M8.65551628,8 C8.50126047,8 8.37644651,8.12481814 8.37644651,8.27906977 L8.37644651,10.6511628 C8.37644651,10.8054186 8.50126465,10.9302326 8.65551628,10.9302326 C8.80976791,10.9302326 8.93458605,10.8054144 8.93458605,10.6511628 L8.93458605,8.27906977 C8.93458605,8.12481395 8.80976791,8 8.65551628,8 Z M1.12063256,8.8372093 C0.50035814,8.8372093 9.76996262e-14,9.33756744 9.76996262e-14,9.95784186 L9.76996262e-14,12.4651442 L11.7209302,12.4651442 L11.7209302,9.95784186 C11.7209302,9.33756744 11.2205721,8.8372093 10.6002977,8.8372093 L9.21366977,8.8372093 L9.21366977,10.0276093 C9.38482326,10.1807767 9.49273953,10.4031535 9.49273953,10.6511628 C9.49273953,11.1133721 9.11773953,11.4883721 8.65553023,11.4883721 C8.19332093,11.4883721 7.81832093,11.1133721 7.81832093,10.6511628 C7.81832093,10.4031674 7.92624279,10.1807767 8.0973907,10.0276093 L8.0973907,8.8372093 L3.62794884,8.8372093 L3.62794884,10.0232558 C3.80182326,10.1764233 3.91137209,10.4009767 3.91137209,10.6511628 C3.91137209,11.1133721 3.53637209,11.4883721 3.07416279,11.4883721 C2.61195349,11.4883721 2.23695349,11.1133721 2.23695349,10.6511628 C2.23695349,10.4053442 2.34324,10.1851442 2.51166977,10.0319767 L2.51166977,8.8372093 L1.12063256,8.8372093 Z M9.76996262e-14,13.0232558 L9.76996262e-14,18.8793953 C9.76996262e-14,19.4996698 0.50035814,20.0000279 1.12063256,20.0000279 L10.6003535,20.0000279 C11.2206279,20.0000279 11.720986,19.4996698 11.720986,18.8793953 L11.720986,13.0232558 L9.76996262e-14,13.0232558 Z" id="Shape" fill="#5D5D5D" fill-rule="nonzero"></path>
    </g>
</svg>