<?xml version="1.0" encoding="UTF-8"?>
<svg width="30px" height="30px" viewBox="0 0 30 30" version="1.1" xmlns="http://www.w3.org/2000/svg" xmlns:xlink="http://www.w3.org/1999/xlink">
    <!-- Generator: Sketch 58 (84663) - https://sketch.com -->
    <title>icon/bullet/data-size</title>
    <desc>Created with Sketch.</desc>
    <g id="icon/bullet/data-size" stroke="none" stroke-width="1" fill="none" fill-rule="evenodd">
        <g id="np_database_289148_000000" transform="translate(0.000000, 7.000000)" fill="#5D5D5D" fill-rule="nonzero">
            <path d="M7.18454545,8.54636364 C6.96140909,8.55287409 6.73769697,8.55642515 6.51515152,8.55642515 C6.29201515,8.55642515 6.06771212,8.55287409 5.84398485,8.54636364 C3.95898485,8.4942803 2.45625758,8.2285303 1.37489394,7.84856061 C0.866484848,7.67692424 0.431469697,7.47510606 0.0953030303,7.24427273 L0.0953030303,9.65790909 C0.825651515,10.4214091 3.27772727,11.1251212 6.51515152,11.1251212 C9.75257576,11.1251212 12.204697,10.4214091 12.935,9.65790909 L12.935,7.24427273 C12.5970455,7.47687879 12.1578939,7.67987879 11.6447576,7.85210606 C10.5634394,8.23030303 9.06430303,8.49486364 7.18445455,8.54634848" id="Path"></path>
            <path d="M0.0952878788,3.87727273 L0.0952878788,6.29151515 C0.772378788,6.99878788 2.9284697,7.65456061 5.81801515,7.74689394 C5.8482,7.74807773 5.87838485,7.74866955 5.90797727,7.74926136 C5.99142879,7.75162879 6.07547727,7.75399621 6.16011364,7.75518 C6.27730152,7.75695545 6.39567424,7.75813924 6.51523485,7.75813924 C6.63479545,7.75813924 6.75315909,7.75695545 6.87035606,7.75518 C6.95499091,7.75399621 7.03903788,7.75162879 7.12249242,7.74926136 C7.15208485,7.74866955 7.1822697,7.74807773 7.21245455,7.74689394 C10.1018485,7.65456364 12.2580606,6.99878788 12.9351818,6.29151515 L12.9351818,3.87727273 C11.6857727,4.73606061 9.04306061,5.19001515 6.51533333,5.19001515 C3.98760606,5.19001515 1.34487879,4.73606061 0.0954848485,3.87727273" id="Path"></path>
            <path d="M12.9007576,2.24727273 C12.6125303,1.14286364 10.3966667,0.0537878788 6.51515152,0.0537878788 C2.64318182,0.0537878788 0.42969697,1.1374697 0.132575758,2.23893939 C0.110677273,2.27681818 0.0952893939,2.31824848 0.0952893939,2.36500455 L0.0952893939,2.95685303 C0.823274242,3.71738333 3.25756212,4.41932273 6.51513788,4.41932273 C9.77271364,4.41932273 12.2069561,3.71738333 12.9349864,2.95685303 L12.9349864,2.36500455 C12.9349864,2.32179848 12.9207818,2.28273636 12.9006591,2.24722576" id="Path"></path>
            <path d="M0.0952878788,10.5830303 L0.0952878788,12.6887879 C0.0952878788,12.7302182 0.105941364,12.7698727 0.124880303,12.8047909 C0.428501515,14.061897 3.14154697,14.9999424 6.51518333,14.9999424 C9.88109242,14.9999424 12.5900318,14.065397 12.9030621,12.8129727 C12.9237773,12.7762773 12.9350227,12.7336636 12.9350227,12.6886833 L12.9350227,10.5829258 C11.8732348,11.3304409 9.68517424,11.918153 6.51517424,11.918153 C3.34456818,11.918153 1.15653788,11.3304409 0.0952878788,10.5829258" id="Path"></path>
        </g>
    </g>
</svg>