<?xml version="1.0" encoding="UTF-8"?>
<svg width="24px" height="24px" viewBox="0 0 24 24" version="1.1" xmlns="http://www.w3.org/2000/svg" xmlns:xlink="http://www.w3.org/1999/xlink">
    <!-- Generator: Sketch 59.1 (86144) - https://sketch.com -->
    <title>icon/challenge</title>
    <desc>Created with Sketch.</desc>
    <g id="icon/challenge" stroke="none" stroke-width="1" fill="none" fill-rule="evenodd">
        <g id="Group">
            <circle id="Oval" fill="#EDEDED" cx="12" cy="12" r="12"></circle>
            <path d="M17.3880945,6.41463387 C16.8602353,6.35112607 16.3958881,6.73134941 16.3323761,7.25920864 L15.825969,11.5456367 C15.8045253,11.6932726 15.6783331,11.8202924 15.5092535,11.7988402 L15.4878097,11.7988402 C15.3187301,11.7988402 15.1925464,11.6512044 15.213154,11.4821247 L15.4663575,5.90835353 C15.4878013,5.3804943 15.08613,4.93675471 14.5582707,4.91614709 C14.0304115,4.89470333 13.5866719,5.29637465 13.5660643,5.82423388 L13.3128608,11.3980051 C13.3128608,11.5670847 13.1652249,11.6932684 12.9961452,11.6726608 C12.8485093,11.6726608 12.7214895,11.5456452 12.7214895,11.3980051 L12.3241199,4.98331428 C12.2820558,4.45545505 11.8383205,4.05461986 11.3104612,4.09667969 C10.782602,4.13873951 10.3817668,4.58247909 10.4238266,5.11033832 L10.8005675,11.2708121 C10.8220112,11.4398917 10.6735519,11.5875276 10.483852,11.5875276 L10.3782801,11.5875276 C10.2306442,11.5875276 10.1250766,11.4819558 10.1036244,11.3343241 L9.21698978,6.24533886 C9.13286169,5.71747963 8.62561852,5.37931189 8.11921148,5.46427611 C7.59135225,5.5484042 7.2531845,6.05564736 7.33814873,6.5620544 C7.33814873,6.5620544 8.09860386,10.700893 8.20417571,11.5874854 C8.30974755,12.4740778 8.37325536,12.9813716 8.4153194,13.7624766 C8.43676316,14.2062162 8.05654404,14.5014795 7.63425665,14.0577399 C7.63425665,14.0577399 6.81113406,13.0440813 6.34594228,12.5797341 C5.86014286,12.0939347 5.37434345,11.9248508 4.86793641,12.2415663 C4.34007717,12.5582819 4.21305313,13.255225 4.55122087,13.761632 C4.55122087,13.761632 6.62059799,17.1399311 7.90798333,18.5543827 C8.45729477,19.1663615 9.1962977,19.8212448 9.99796808,19.8212448 L14.2423786,19.8212448 C16.3958332,19.8212448 16.9032115,17.7098079 17.1983904,15.5348167 C17.4936537,13.3813622 18.2541088,7.46933884 18.2541088,7.46933884 C18.2961729,6.96375527 17.9159411,6.47795586 17.3880819,6.41444384 L17.3880945,6.41463387 Z" id="Path" fill="#686868" fill-rule="nonzero"></path>
        </g>
    </g>
</svg>