<?xml version="1.0" encoding="UTF-8"?>
<svg width="30px" height="30px" viewBox="0 0 30 30" version="1.1" xmlns="http://www.w3.org/2000/svg" xmlns:xlink="http://www.w3.org/1999/xlink">
    <!-- Generator: Sketch 58 (84663) - https://sketch.com -->
    <title>icon/bullet/license</title>
    <desc>Created with Sketch.</desc>
    <g id="icon/bullet/license" stroke="none" stroke-width="1" fill="none" fill-rule="evenodd">
        <path d="M6.5,8 C2.91031,8 0,10.91031 0,14.5 C0,18.08969 2.91031,21 6.5,21 C10.08969,21 13,18.08969 13,14.5 C13,10.91031 10.08969,8 6.5,8 Z M6.50507806,18.0673829 C4.53375806,18.0673829 2.93514806,16.46924 2.93514806,14.4974 C2.93514806,12.52608 4.53323806,10.92747 6.50507806,10.92747 C8.17622806,10.92747 9.57892806,12.076137 9.96736806,13.62757 L8.38851806,13.6280779 C8.05894206,12.9171339 7.33887206,12.4225359 6.50507806,12.4225359 C5.36046706,12.4225359 4.42962806,13.3533619 4.42962806,14.4979859 C4.42962806,15.6426099 5.36045406,16.5734359 6.50507806,16.5734359 C7.34195306,16.5734359 8.06403806,16.0757829 8.39215806,15.3607829 L9.96944806,15.3607829 C9.58350406,16.9151929 8.17895806,18.0673829 6.50520806,18.0673829 L6.50507806,18.0673829 Z" id="Shape" fill="#5D5D5D" fill-rule="nonzero"></path>
    </g>
</svg>