<?xml version="1.0" encoding="UTF-8"?>
<svg width="30px" height="30px" viewBox="0 0 30 30" version="1.1" xmlns="http://www.w3.org/2000/svg" xmlns:xlink="http://www.w3.org/1999/xlink">
    <!-- Generator: Sketch 58 (84663) - https://sketch.com -->
    <title>icon/bullet/owner</title>
    <desc>Created with Sketch.</desc>
    <g id="icon/bullet/owner" stroke="none" stroke-width="1" fill="none" fill-rule="evenodd">
        <g id="np_person_2000268_000000" transform="translate(-0.000000, 9.000000)" fill="#5D5D5D" fill-rule="nonzero">
            <path d="M11.1506468,4.26607639 C11.1506468,6.5353373 9.31092758,8.37505655 7.04166667,8.37505655 C4.77240575,8.37505655 2.93268651,6.5353373 2.93268651,4.26607639 C2.93268651,1.99681548 4.77240575,0.15709623 7.04166667,0.15709623 C9.31092758,0.15709623 11.1506468,1.99681548 11.1506468,4.26607639" id="Path"></path>
            <path d="M9.64037698,7.95590972 C8.90490843,8.47526617 8.00831984,8.7817631 7.04166667,8.7817631 C6.07501349,8.7817631 5.1784752,8.47526617 4.44362698,7.95590972 C1.91432738,8.29645813 0.130270833,9.35218839 0.130270833,12.2494821 L13.9528948,12.2494821 C13.9528948,9.35150099 12.1695089,8.2964246 9.64020933,7.95590972 L9.64037698,7.95590972 Z" id="Path"></path>
        </g>
    </g>
</svg>