<?xml version="1.0" encoding="UTF-8"?>
<svg width="30px" height="30px" viewBox="0 0 30 30" version="1.1" xmlns="http://www.w3.org/2000/svg" xmlns:xlink="http://www.w3.org/1999/xlink">
    <!-- Generator: Sketch 58 (84663) - https://sketch.com -->
    <title>icon/bullet/pricetag</title>
    <desc>Created with Sketch.</desc>
    <g id="icon/bullet/pricetag" stroke="none" stroke-width="1" fill="none" fill-rule="evenodd">
        <path d="M12.5592866,9.65822127 L9.68025258,6.52147653 C9.0405972,5.82617449 7.96019402,5.82617449 7.32050424,6.52147653 L4.44009418,9.65822127 C4.15790138,9.96487462 4,10.3741986 4,10.7979881 L4,20.3378836 C4,21.255074 4.7256583,22 5.62062197,22 L11.379378,22 C12.2736709,22 13,21.2557618 13,20.3378836 L12.9993275,10.7979881 C12.9993275,10.3741986 12.8447905,9.96485698 12.5592333,9.65822127 L12.5592866,9.65822127 Z M8.5,8.08695652 C9.07272206,8.08695652 9.53846154,8.55494594 9.53846154,9.13043478 C9.53846154,9.70592362 9.07272206,10.173913 8.5,10.173913 C7.92727794,10.173913 7.46153846,9.70592362 7.46153846,9.13043478 C7.46153846,8.55424439 7.92727794,8.08695652 8.5,8.08695652 Z" id="Fill-1" fill="#5D5D5D" transform="translate(8.500000, 14.000000) rotate(45.000000) translate(-8.500000, -14.000000) "></path>
    </g>
</svg>