<?xml version="1.0" encoding="UTF-8"?>
<svg width="30px" height="30px" viewBox="0 0 30 30" version="1.1" xmlns="http://www.w3.org/2000/svg" xmlns:xlink="http://www.w3.org/1999/xlink">
    <!-- Generator: Sketch 58 (84663) - https://sketch.com -->
    <title>icon/bullet/purchases</title>
    <desc>Created with Sketch.</desc>
    <g id="icon/bullet/purchases" stroke="none" stroke-width="1" fill="none" fill-rule="evenodd">
        <g id="Group" transform="translate(0.000000, 8.000000)">
            <circle id="Oval" fill="#5D5D5D" cx="6.5" cy="6.5" r="6.5"></circle>
            <path d="M2.70833333,4.8750171 C2.70833333,4.73339414 2.82682132,4.61849094 2.97286268,4.61849094 L9.3878757,4.61849094 L8.42893918,3.68856652 C8.32560696,3.58836057 8.32560696,3.42536043 8.42893918,3.32515447 C8.5322714,3.22494851 8.70035687,3.22494851 8.80368909,3.32515447 L10.2145123,4.69329397 C10.2641098,4.74139092 10.2916667,4.80685981 10.2916667,4.875 C10.2916667,4.94314019 10.2641098,5.00860566 10.2145123,5.05670603 L8.80368909,6.42484553 C8.70035687,6.52505149 8.5322714,6.52505149 8.42893918,6.42484553 C8.32560696,6.32463957 8.32560696,6.16163943 8.42893918,6.06143348 L9.3878757,5.13150906 L2.97286268,5.13150906 C2.82682132,5.13150906 2.70833333,5.01660586 2.70833333,4.8749829 L2.70833333,4.8750171 Z M2.70833333,8.66664957 C2.70833333,8.59851009 2.73588671,8.53304531 2.78548773,8.48494545 L4.19631091,7.11682034 C4.29964313,7.01661544 4.4677286,7.01661544 4.57106082,7.11682034 C4.67439304,7.21702525 4.67439304,7.38002367 4.57106082,7.48022858 L3.6121243,8.41014321 L10.0271373,8.41014321 C10.1731787,8.41014321 10.2916667,8.5250452 10.2916667,8.66666667 C10.2916667,8.80828814 10.1731787,8.92319012 10.0271373,8.92319012 L3.6121243,8.92319012 L4.57106082,9.85310476 C4.67439304,9.95330966 4.67439304,10.1163081 4.57106082,10.216513 C4.4677286,10.3167179 4.29964313,10.3167179 4.19631091,10.216513 L2.78548773,8.84838788 C2.73589024,8.80029145 2.70833333,8.73482324 2.70833333,8.66668377 L2.70833333,8.66664957 Z" id="Fill-1" fill="#F2F2F2"></path>
        </g>
    </g>
</svg>