<?xml version="1.0" encoding="UTF-8"?>
<svg width="24px" height="24px" viewBox="0 0 24 24" version="1.1" xmlns="http://www.w3.org/2000/svg" xmlns:xlink="http://www.w3.org/1999/xlink">
    <!-- Generator: Sketch 59.1 (86144) - https://sketch.com -->
    <title>Group</title>
    <desc>Created with Sketch.</desc>
    <defs>
        <circle id="path-1" cx="12" cy="12" r="12"></circle>
    </defs>
    <g id="Symbols" stroke="none" stroke-width="1" fill="none" fill-rule="evenodd">
        <g id="drawer/components/voting/default">
            <g id="Group">
                <mask id="mask-2" fill="white">
                    <use xlink:href="#path-1"></use>
                </mask>
                <use id="Oval-Copy" fill="#EDEDED" xlink:href="#path-1"></use>
                <g id="Group-5" mask="url(#mask-2)" fill="#686868">
                    <g transform="translate(3.000000, 4.000000)">
                        <path d="M3.14814815,3.85412016 C3.14814815,3.57907123 3.25819668,3.35942784 3.42295233,3.13978445 L5.83951572,0.336527987 C5.94956425,0.171630548 6.16901713,0.116884598 6.38846507,0.171630548 C6.60791302,0.226381444 6.71796649,0.336527987 6.82801996,0.556171376 L6.93806849,0.831220304 C7.04811702,1.10626923 6.99277067,1.43606411 6.88336632,1.6557075 L5.89357701,3.46891974 L8.91378699,3.46891974 C9.0785377,3.46891974 9.24328841,3.57906628 9.35334188,3.68856313 C9.46339041,3.85346057 9.46339041,4.01835801 9.40804406,4.18325544 L7.81523421,8.25094547 C7.65048351,8.69089184 7.26628485,8.96528118 6.77203273,8.96528118 L3.69712552,8.96592593 C3.3676241,8.96592593 3.14814815,8.74628254 3.14814815,8.41648766 L3.14814815,3.85412016 Z" id="Fill-1"></path>
                        <path d="M1.88888889,3.86638664 C1.88888889,3.52637304 1.63728889,3.29992399 1.25951111,3.29992399 L0,3.29925926 L0,8.96592593 L1.25951111,8.96592593 C1.63728889,8.96592593 1.88888889,8.73947687 1.88888889,8.39946327 L1.88888889,3.86638664 Z" id="Fill-2"></path>
                        <path d="M13.8518519,12.1888427 C13.8518519,12.4638916 13.7418033,12.683535 13.5770477,12.9031784 L11.1604843,15.706435 C11.0504358,15.8713324 10.8309829,15.9260784 10.6115349,15.8713324 C10.392087,15.8165815 10.2820335,15.706435 10.17198,15.4867914 L10.0619315,15.2117427 C9.95188298,14.9366937 10.0072293,14.6068987 10.1166337,14.3872553 L11.106423,12.5740431 L8.08621301,12.5740431 C7.9214623,12.5740431 7.75671159,12.4638966 7.64665812,12.3543997 C7.53660959,12.2442532 7.53660959,12.0246049 7.59195594,11.8597074 L9.18476579,7.79201748 C9.34951649,7.35207112 9.73371515,7.07768179 10.2279673,7.07768179 L13.3028745,7.07703704 C13.6323759,7.07703704 13.8518519,7.29668042 13.8518519,7.62647529 L13.8518519,12.1888427 Z" id="Fill-3"></path>
                        <path d="M15.1111111,12.177241 C15.1111111,12.5172546 15.3627111,12.7437037 15.7404889,12.7437037 L17,12.7437037 L17,7.07703704 L15.7404889,7.07703704 C15.3627111,7.07703704 15.1111111,7.30348609 15.1111111,7.6434997 L15.1111111,12.177241 Z" id="Fill-4"></path>
                    </g>
                </g>
            </g>
        </g>
    </g>
</svg>